<svg xmlns="http://www.w3.org/2000/svg" viewBox="0 0 354.32 216.2"><defs><style>.cls-1{fill:#060900;fill-rule:evenodd;}</style></defs><title>iconLogoText</title><g id="Camada_2" data-name="Camada 2"><g id="Camada_1-2" data-name="Camada 1"><path class="cls-1" d="M222.23,86.27,153.36,144.4l0,.23-29.27,24.68H95.71L114.79,66.59H101.41L107,36.66h66.4l-5.56,29.93H151.26l-10.59,57h0L209.85,65.3l-3,16.34a3.91,3.91,0,0,0,3.85,4.63Z"/><path class="cls-1" d="M16.63,57.84,0,148.13l17.28,21.18H75.73l19-16,15.38-82.77h-8.67a3.91,3.91,0,0,1-3.84-4.63l4.9-26.38-2.32-2.84H41.7L16.63,57.84Zm62,12.89-11.88,64.5-4.9,4.14H42.38l-3.54-4.14,11.88-64.5,5.09-4.29H75.24Z"/><path class="cls-1" d="M282.22,139.37l4-21.5h5.42l-1,5.26h29.78l7.42-40.29H298.05l-1,5.25h-5.42l4-21.65H318.9l-1,5.25h29.94l6.45-35H309.49a6.9,6.9,0,0,1,.11,2.27,5.92,5.92,0,0,1-3.8,4.92L289.18,50l3.66,21.27A6,6,0,0,1,287,78.54a6.89,6.89,0,0,1-5.36-2.85L272.05,64l-13.28,71.47h8.67a3.91,3.91,0,0,1,3.84,4.63l-5.43,29.22h64l6.48-35.19H306.44l-1,5.25Z"/><polygon class="cls-1" points="227.22 82.36 216.62 139.37 200.06 139.37 194.5 169.31 260.91 169.31 266.47 139.37 253.09 139.37 272.18 36.66 243.83 36.66 214.56 61.34 210.66 82.36 227.22 82.36"/><path class="cls-1" d="M277.18,2.76l4.13,24.48L303.56,35a3.4,3.4,0,0,1,2.16,3.44,2,2,0,0,1-1.28,1.73l-19.67,7.27L289,71.93a2.1,2.1,0,0,1-2,2.69,3,3,0,0,1-2.32-1.33L272.2,58l1.11-6,9.32,11.45-3.1-17.93a2.25,2.25,0,0,1,1.24-2.68l14.49-5.35L279,31.8a3.42,3.42,0,0,1-2.25-2.65l-3-18-7,14.49a2,2,0,0,1-2.57,1l-16.38-5.79,9.8,12h-6L238.68,17.07a2.83,2.83,0,0,1-.11-3.8,2.1,2.1,0,0,1,2.31-.3l22.06,7.81L272.46,1.1a2.14,2.14,0,0,1,3.32-.57A3.54,3.54,0,0,1,277.18,2.76Z"/><path class="cls-1" d="M22.33,202.51l5.74-5.73V185.91l-5.74-5.78H0v8.11H2.16v19.84H0v8.12H14.22v-8.12H12.06v-5.57ZM12.06,194.4v-6.16h5l1.13,1.19v3.84L17,194.4ZM89,208.08v-6.49h5l1.13,1.19V216.2h12.06v-8.12H105v-8.22l-2.38-2.32,2.38-2.38v-9.25l-5.73-5.78H76.93v8.11H79.1v19.84H76.93v8.12H91.16v-8.12Zm0-14.6v-5.24h5l1.13,1.19v2.86L94,193.48Zm80.5,22.72v-8.12h-2.16V188.24h2.16v-8.11H155.27v8.11h2.17v19.84h-2.17v8.12Zm70,0h11.9v-8.12h-2.16V188.24h2.16v-8.11H237.13v8.11h2.16v8.38l-9.9-16.49H217.66v8.11h2.16v19.84h-2.16v8.12h14.22v-8.12h-2.16v-8l9.73,16.12ZM330,190.4V180.13H299.51V190.4h8.11v-2.16h2.17V208h-2.17v8.11h14.23V208h-2.17V188.24h2.17v2.16Z"/></g></g></svg>