<?xml version="1.0" encoding="utf-8"?>
<!-- Generator: Adobe Illustrator 23.0.5, SVG Export Plug-In . SVG Version: 6.00 Build 0)  -->
<svg version="1.1" id="Camada_1" xmlns="http://www.w3.org/2000/svg" xmlns:xlink="http://www.w3.org/1999/xlink" x="0px" y="0px"
	 viewBox="0 0 80 40" style="enable-background:new 0 0 80 40;" xml:space="preserve">
<style type="text/css">
	.st0{fill-rule:evenodd;clip-rule:evenodd;fill:#5567FF;}
	.st1{fill:#5567FF;}
</style>
<g>
	<path class="st0" d="M50.1,20.4l-15.5,13l0,0L28.1,39h0l0,0l0,0h-6.3L26,16h-3l1.3-6.7h14.9L37.9,16h-3.7l-2.4,12.8l0,0l15.5-13.1
		l-0.7,3.7c0,0.3,0,0.5,0.2,0.7s0.4,0.3,0.7,0.3L50.1,20.4L50.1,20.4z"/>
	<path class="st1" d="M4,14L0.3,34.2L4.1,39h13.1l4.3-3.6L25,16.8H23c-0.3,0-0.5-0.1-0.7-0.3s-0.2-0.5-0.2-0.7l1.1-5.9l-0.5-0.6H9.6
		L4,14L4,14z M17.9,16.9l-2.7,14.5l-1.1,0.9H9.8L9,31.3l2.7-14.5l1.1-1h4.4L17.9,16.9L17.9,16.9z"/>
	<path class="st1" d="M63.6,32.3l0.9-4.8h1.2l-0.2,1.2h6.7l1.7-9h-6.7l-0.2,1.2h-1.2l0.9-4.9h5.2l-0.2,1.2h6.7l1.4-7.9h-10
		c0,0.2,0.1,0.3,0,0.5c-0.1,0.5-0.4,0.9-0.8,1.1l-3.7,1.4l0.8,4.8c0.2,0.9-0.4,1.6-1.3,1.6c-0.5,0-0.9-0.3-1.2-0.6l-2.1-2.6l-3,16
		h1.9c0.3,0,0.5,0.1,0.7,0.3s0.2,0.5,0.2,0.7L59.9,39h14.4l1.4-7.9H69l-0.2,1.2H63.6L63.6,32.3z"/>
	<polygon class="st1" points="51.2,19.5 48.8,32.3 45.1,32.3 43.9,39 58.8,39 60,32.3 57,32.3 61.3,9.2 55,9.2 48.4,14.8 47.5,19.5 
			"/>
	<path class="st1" d="M62.4,1.6l0.9,5.5l5,1.7c0.3,0.1,0.5,0.4,0.5,0.8c0,0.2-0.1,0.3-0.3,0.4l-4.4,1.6l0.9,5.5
		c0.1,0.3-0.1,0.6-0.4,0.6c-0.2,0-0.4-0.1-0.5-0.3L61.3,14l0.3-1.3l2.1,2.6l-0.7-4c0-0.3,0-0.5,0.3-0.6l3.2-1.2l-3.7-1.3
		c-0.3-0.1-0.5-0.3-0.5-0.6l-0.7-4l-1.6,3.3C60,7,59.8,7.1,59.5,7l-3.7-1.3L58,8.4h-1.3l-2.9-3.5c-0.2-0.3-0.2-0.7,0-0.8
		c0.1-0.1,0.3-0.1,0.5-0.1l5,1.7l2.1-4.4c0.1-0.3,0.5-0.3,0.7-0.1C62.3,1.3,62.4,1.4,62.4,1.6L62.4,1.6z"/>
</g>
</svg>
