<?xml version="1.0" encoding="utf-8"?>
<!-- Generator: Adobe Illustrator 23.0.5, SVG Export Plug-In . SVG Version: 6.00 Build 0)  -->
<svg version="1.1" id="Camada_1" xmlns="http://www.w3.org/2000/svg" xmlns:xlink="http://www.w3.org/1999/xlink" x="0px" y="0px"
	 viewBox="0 0 80 40" style="enable-background:new 0 0 80 40;" xml:space="preserve">
<style type="text/css">
	.st0{fill-rule:evenodd;clip-rule:evenodd;fill:#FFFFFF;}
	.st1{fill:#FFFFFF;}
</style>
<g>
	<path class="st0" d="M50.11,20.36L34.66,33.4l-0.01,0.05l-6.56,5.54h-0.04l0,0l0,0h-6.31l4.28-23.04h-3l1.25-6.72h14.89l-1.25,6.72
		h-3.71l-2.38,12.79h0l15.52-13.08l-0.68,3.67c-0.05,0.27,0.02,0.51,0.19,0.72c0.17,0.21,0.4,0.32,0.67,0.32H50.11L50.11,20.36z"/>
	<path class="st1" d="M3.99,13.98L0.26,34.24l3.88,4.75h13.11l4.26-3.59l3.45-18.57h-1.94c-0.27,0-0.5-0.11-0.67-0.32
		c-0.17-0.21-0.24-0.46-0.19-0.72l1.1-5.92l-0.52-0.64H9.62L3.99,13.98L3.99,13.98z M17.89,16.88l-2.66,14.47l-1.1,0.93H9.77
		l-0.79-0.93l2.66-14.47l1.14-0.96h4.36L17.89,16.88L17.89,16.88z"/>
	<path class="st1" d="M63.56,32.27l0.89-4.82h1.21l-0.22,1.18h6.68l1.66-9.04h-6.68l-0.22,1.18h-1.21l0.89-4.86h5.21l-0.22,1.18
		h6.71l1.45-7.86H69.68c0.04,0.17,0.05,0.34,0.02,0.51c-0.06,0.5-0.38,0.93-0.85,1.1l-3.73,1.38L65.95,17
		c0.15,0.85-0.44,1.64-1.32,1.63c-0.48-0.01-0.92-0.26-1.2-0.64l-2.14-2.62L58.3,31.39h1.94c0.27,0,0.5,0.11,0.67,0.32
		c0.17,0.21,0.24,0.46,0.19,0.72l-1.22,6.55h14.37l1.45-7.89H69l-0.22,1.18H63.56L63.56,32.27z"/>
	<polygon class="st1" points="51.23,19.48 48.85,32.27 45.14,32.27 43.89,38.99 58.78,38.99 60.03,32.27 57.03,32.27 61.31,9.23 
		54.95,9.23 48.39,14.77 47.51,19.48 51.23,19.48 	"/>
	<path class="st1" d="M62.43,1.63l0.93,5.49l4.99,1.74c0.31,0.11,0.52,0.45,0.48,0.77c-0.02,0.19-0.13,0.33-0.29,0.39l-4.41,1.63
		l0.95,5.49c0.06,0.34-0.14,0.61-0.45,0.6c-0.2,0-0.39-0.12-0.52-0.3l-2.8-3.43l0.25-1.34l2.09,2.57l-0.69-4.02
		c-0.05-0.27,0.05-0.52,0.28-0.6l3.25-1.2l-3.65-1.27c-0.25-0.07-0.46-0.31-0.5-0.6l-0.68-4.04l-1.57,3.25
		c-0.1,0.21-0.33,0.3-0.58,0.22l-3.67-1.3l2.2,2.68h-1.34L53.8,4.84c-0.23-0.28-0.24-0.66-0.03-0.85c0.14-0.13,0.34-0.14,0.52-0.07
		l4.95,1.75l2.14-4.41c0.13-0.27,0.46-0.33,0.74-0.13C62.29,1.25,62.4,1.44,62.43,1.63L62.43,1.63z"/>
</g>
</svg>
