<svg xmlns="http://www.w3.org/2000/svg"
  xmlns:xlink="http://www.w3.org/1999/xlink" viewBox="0 0 180 180" width="180" height="180" preserveAspectRatio="xMidYMid meet" style="width: 100%; height: 100%; transform: translate3d(0px, 0px, 0px); content-visibility: visible;">
  <defs>
    <clipPath id="__lottie_element_2">
      <rect width="180" height="180" x="0" y="0"></rect>
    </clipPath>
    <clipPath id="__lottie_element_4">
      <path d="M0,0 L480,0 L480,480 L0,480z"></path>
    </clipPath>
    <linearGradient id="__lottie_element_11" spreadMethod="pad" gradientUnits="userSpaceOnUse" x1="-163.9250030517578" y1="114.29900360107422" x2="205.8979949951172" y2="-131.20399475097656">
      <stop offset="0%" stop-color="rgb(17,153,142)"></stop>
      <stop offset="31%" stop-color="rgb(36,196,134)"></stop>
      <stop offset="100%" stop-color="rgb(56,239,125)"></stop>
    </linearGradient>
  </defs>
  <g clip-path="url(#__lottie_element_2)">
    <g clip-path="url(#__lottie_element_4)" transform="matrix(0.375,0,0,0.375,0,0)" opacity="1" style="display: block;">
      <g transform="matrix(1,0,0,1,240,240)" opacity="1" style="display: block;">
        <g opacity="1" transform="matrix(1,0,0,1,0,-2)">
          <path fill="url(#__lottie_element_11)" fill-opacity="1" d=" M163,0 C163,90.02200317382812 90.02200317382812,163 0,163 C-90.02200317382812,163 -163,90.02200317382812 -163,0 C-163,-90.02200317382812 -90.02200317382812,-163 0,-163 C90.02200317382812,-163 163,-90.02200317382812 163,0z"></path>
        </g>
      </g>
      <g transform="matrix(1,0,0,1,240,240)" opacity="1" style="display: block;">
        <g opacity="1" transform="matrix(1,0,0,1,0,0)">
          <path stroke-linecap="round" stroke-linejoin="round" fill-opacity="0" stroke="rgb(255,255,255)" stroke-opacity="1" stroke-width="35" d=" M81,-46.64400100708008 C81,-46.64400100708008 -24.66699981689453,58.51900100708008 -24.66699981689453,58.51900100708008 C-24.66699981689453,58.51900100708008 -73,9.835000038146973 -73,9.835000038146973"></path>
        </g>
      </g>
    </g>
  </g>
</svg>
